#tb 0: 1/1000
0,          0,          0,        0,      918, 612cc424eaae924cb25c7732c422f752
0,         33,         33,        0,      918, 010e8c2a814862529fcf8d7771ba2d7f
0,         66,         66,        0,      918, 7d791b7a5916738998f77586339d5840
0,        100,        100,        0,      918, aeada5f59f3dda9ab3e898f305428cb2
0,        133,        133,        0,      918, 06af894d38a1f0d3665c0081f5397ddf
0,        166,        166,        0,      918, 24bf31323c568e652550e9d35de9c96c
0,        200,        200,        0,      918, a9681ec47d3e6a19321b9ea47221dc3f
0,        233,        233,        0,      918, 73ae7268df79c4012952bd3e8011e894
0,        266,        266,        0,      918, 67aa4145398ca17036959251cb4ce17b
0,        300,        300,        0,      918, de247b80114c722da849f5aa23adbb38
